<?xml version="1.0" encoding="UTF-8"?>
<svg xmlns="http://www.w3.org/2000/svg" version="1.1" viewBox="0 0 200 200">
  <!-- Generator: Adobe Illustrator 29.1.0, SVG Export Plug-In . SVG Version: 2.1.0 Build 142)  -->
  <defs>
    <style>
      .st0 {
        fill: #fff;
        stroke-width: 3.09px;
      }

      .st0, .st1 {
        stroke: #000;
        stroke-miterlimit: 10;
      }

      .st2 {
        font-size: 50.25px;
      }

      .st2, .st3, .st4 {
        font-family: LoosNormal-Bold, 'Loos Normal';
        font-weight: 700;
      }

      .st3 {
        font-size: 56.57px;
      }

      .st4 {
        font-size: 56.67px;
      }

      .st1 {
        fill: none;
        stroke-width: 8.24px;
      }

      .st5 {
        display: none;
      }
    </style>
  </defs>
  <g id="border">
    <rect class="st0" x="21.15" y="20.78" width="157.61" height="157.61"/>
  </g>
  <g id="Layer_4" class="st5">
    <path d="M106.73,76.28c-.92-1.11-1.4-2.38-1.4-3.68v-25.87c0-2.01-2.22-3.64-4.96-3.64h0c-2.74,0-4.96,1.63-4.96,3.64v25.77c0,1.36-.53,2.69-1.53,3.83l-11.82,13.51c-1.3,1.49-2,3.23-2,5v53.82c0,4.1,4.53,7.42,10.11,7.42h19.56c5.59,0,10.11-3.32,10.11-7.42v-53.94c0-1.69-.63-3.36-1.83-4.8l-11.28-13.64Z"/>
  </g>
  <g id="Layer_2" class="st5">
    <g>
      <path d="M124.41,42.07l-18.36,52.06c-1.27,3.6.51,7.5,4.22,9.23l7.26,3.4v41.19c0,3.18,2.85,5.76,6.37,5.76h0c3.52,0,6.37-2.58,6.37-5.76V42.9c0-1.5-1.34-2.71-3-2.71h0c-1.3,0-2.46.76-2.86,1.89Z"/>
      <path d="M97.01,47.87h-.47c-1.43,0-2.59,1.05-2.59,2.35v5.01s0,0,0,0v19.16c0,1.18-1.06,2.13-2.36,2.13-1.3,0-2.36-.96-2.36-2.13v-.05s0,0,0,0v-24.12c0-1.3-1.16-2.35-2.59-2.35-1.43,0-2.59,1.05-2.59,2.35v5.01s0,19.11,0,19.11v.05c0,1.18-1.06,2.13-2.36,2.13-1.3,0-2.36-.96-2.36-2.13v-.05s0-19.11,0-19.11v-5.01c0-1.3-1.16-2.35-2.59-2.35h0c-1.43,0-2.59,1.05-2.59,2.35v5.01s0,19.11,0,19.11v.05c0,1.18-1.06,2.13-2.36,2.13-1.3,0-2.36-.96-2.36-2.13v-.05s0-19.11,0-19.11v-5.01c0-1.3-1.16-2.35-2.59-2.35h-.47c-1.43,0-2.59,1.05-2.59,2.35v30.52c0,6.87,4.74,12.71,11.4,15.07v52.15c0,3.18,2.85,5.76,6.37,5.76h.31c3.52,0,6.37-2.58,6.37-5.76v-52.15c6.66-2.36,11.4-8.2,11.4-15.07v-30.52c0-1.3-1.16-2.35-2.59-2.35Z"/>
    </g>
  </g>
  <g id="Layer_5" class="st5">
    <text class="st2" transform="translate(65.64 94.36) rotate(-.57)"><tspan x="0" y="0">SO</tspan><tspan x="-16.56" y="43.32">BAR</tspan></text>
  </g>
  <g id="Layer_6" class="st5">
    <g>
      <path d="M127.46,74.76c6.66,0,12.07-5.41,12.07-12.08s-5.4-12.08-12.07-12.08-12.07,5.41-12.07,12.08,5.4,12.08,12.07,12.08Z"/>
      <path d="M149.05,111.59l-15.16-33c-2.32-5.04-9.47-5.12-11.9-.13l-16.07,33.03c-1.65,3.38.47,7.56,3.84,7.56h9.36v33.38c0,3.11,3.05,5.63,6.82,5.63h.34c3.76,0,6.81-2.52,6.81-5.63v-33.38h12.08c3.32,0,5.44-4.07,3.89-7.45Z"/>
      <path d="M86.63,62.67c0-6.67-5.4-12.08-12.07-12.08s-12.07,5.41-12.07,12.08,5.4,12.08,12.07,12.08,12.07-5.41,12.07-12.08Z"/>
      <path d="M74.56,74.76c-10.44,0-18.9,8.47-18.9,18.92v24.13c0,2.33,1.89,4.22,4.21,4.22h7.8v30.39c0,3.11,3.05,5.63,6.81,5.63h.34c3.76,0,6.82-2.52,6.82-5.63v-30.39h7.6c2.33,0,4.21-1.89,4.21-4.22v-24.13c0-10.45-8.46-18.92-18.9-18.92Z"/>
    </g>
  </g>
  <g id="Layer_7">
    <path d="M93.54,60.84l-21.56,40.55c-10.83,20.36,2.05,46.17,25.03,48.04.94.08,1.9.12,2.86.12s1.92-.04,2.86-.12c22.98-1.87,35.86-27.68,25.03-48.04l-21.56-40.55c-2.7-5.08-9.98-5.08-12.68,0Z"/>
  </g>
  <g id="Layer_8" class="st5">
    <g>
      <circle class="st1" cx="99.72" cy="102.5" r="49.17"/>
      <path d="M106.21,97.83l10.9-23.04c.69-1.46-1.03-2.88-2.33-1.92l-36.9,30.37c-1.11.92-.47,2.72.98,2.72h13.68c.82,0,1.36.86,1,1.6l-10.92,22.58c-.71,1.46,1.02,2.89,2.32,1.93l36.62-30.06c1.11-.91.47-2.72-.97-2.72h-13.44c-.75,0-1.25-.79-.93-1.47Z"/>
    </g>
  </g>
  <g id="Layer_9" class="st5">
    <g>
      <path d="M104.94,94.71c10.85-11.75,10.12-30.07-1.63-40.93-11.75-10.85-30.07-10.12-40.93,1.63l42.56,39.3Z"/>
      <path d="M142.59,159.78c-2.62,0-4.75-2.12-4.75-4.74l-.11-92.32-24.36-13.74-13.64,10.53c-2.09,1.58-5.06,1.18-6.65-.9-1.59-2.09-1.19-5.06.9-6.65l13.83-10.54c2.98-2.27,7.01-2.55,10.26-.69l24.44,13.88c2.91,1.65,4.72,4.76,4.72,8.09l.11,92.32c0,2.62-2.12,4.75-4.74,4.75Z"/>
      <circle cx="56.25" cy="70.47" r="4.06"/>
      <circle cx="72.51" cy="85.13" r="4.06"/>
      <circle cx="87.53" cy="99.24" r="4.06"/>
      <circle cx="56.28" cy="99.28" r="4.06"/>
      <circle cx="72.55" cy="115.81" r="4.06"/>
      <circle cx="87.57" cy="130.52" r="4.06"/>
      <circle cx="56.27" cy="84.87" r="2.03"/>
      <circle cx="72.53" cy="99.26" r="2.03"/>
      <circle cx="87.55" cy="115.79" r="2.03"/>
    </g>
  </g>
  <g id="Layer_10" class="st5">
    <path d="M91.27,45.09h-37.21c-3.51,0-6.35,2.84-6.35,6.35v39.26c0,3.51,2.85,6.35,6.35,6.35h37.21c3.51,0,6.35-2.84,6.35-6.35v-39.26c0-3.51-2.85-6.35-6.35-6.35ZM87.37,77.87c-2.36,0-4.27-1.91-4.27-4.27s1.91-4.27,4.27-4.27,4.27,1.91,4.27,4.27-1.91,4.27-4.27,4.27Z"/>
    <path d="M145.37,45.37h-37.21c-3.51,0-6.35,2.84-6.35,6.35v39.26c0,3.51,2.85,6.35,6.35,6.35h37.21c3.51,0,6.35-2.84,6.35-6.35v-39.26c0-3.51-2.85-6.35-6.35-6.35ZM141.47,78.14c-2.36,0-4.27-1.91-4.27-4.27s1.91-4.27,4.27-4.27,4.27,1.91,4.27,4.27-1.91,4.27-4.27,4.27Z"/>
    <path d="M91.27,101.09h-37.21c-3.51,0-6.35,2.84-6.35,6.35v39.26c0,3.51,2.85,6.35,6.35,6.35h37.21c3.51,0,6.35-2.84,6.35-6.35v-39.26c0-3.51-2.85-6.35-6.35-6.35ZM87.37,133.87c-2.36,0-4.27-1.91-4.27-4.27s1.91-4.27,4.27-4.27,4.27,1.91,4.27,4.27-1.91,4.27-4.27,4.27Z"/>
    <path d="M145.37,101.37h-37.21c-3.51,0-6.35,2.84-6.35,6.35v39.26c0,3.51,2.85,6.35,6.35,6.35h37.21c3.51,0,6.35-2.84,6.35-6.35v-39.26c0-3.51-2.85-6.35-6.35-6.35ZM141.47,134.14c-2.36,0-4.27-1.91-4.27-4.27s1.91-4.27,4.27-4.27,4.27,1.91,4.27,4.27-1.91,4.27-4.27,4.27Z"/>
  </g>
  <g id="Layer_11" class="st5">
    <g>
      <path d="M75.32,81.1h0c-2.7-1.46-3.7-4.83-2.24-7.52l6.82-12.62c3.83-7.1,10.94-11.42,19.01-11.57,7.83-.09,15.33,3.92,19.42,10.88l10.21,17.36-9.57,5.63-11.26-19.14c-1.59-2.71-4.67-4.09-7.79-3.67-.76.1-.62-.05-1.48.18-3.71.97-8.22,4.6-10.04,7.97l-5.55,10.27c-1.46,2.7-4.83,3.7-7.52,2.24Z"/>
      <path d="M134.63,66.92l-5.48,19.89c-.24.89-1.16,1.41-2.05,1.16l-19.27-5.3c-1.42-.39-1.67-2.29-.4-3.04l24.74-14.59c1.29-.76,2.85.43,2.45,1.88Z"/>
      <path d="M110.84,145.59l-.19-11.1,19.71-.35c3.57-.06,7.06-1.63,9.12-4.55,2.67-3.77,2.77-8.47.39-12.27l-7.64-12.14c-1.63-2.6-.85-6.02,1.74-7.65h0c2.59-1.63,6.02-.85,7.65,1.74l7.15,11.35c4.2,6.68,5.13,15.16,1.64,22.25-3.73,7.57-11.06,12.21-19.43,12.36l-20.14.36Z"/>
      <path d="M117.18,156.16l-14.63-14.54c-.65-.65-.66-1.7,0-2.36l14.09-14.17c1.04-1.04,2.82-.33,2.85,1.14l.54,28.72c.03,1.5-1.78,2.27-2.84,1.21Z"/>
      <path d="M70.7,145.91c-8.24,0-15.58-4.4-19.5-11.78-3.67-6.9-3.06-15.31.85-22.08l9.62-16.69,9.61,5.55-9.72,16.84c-2.11,3.67-2.39,8.3-.14,11.89,2.02,3.24,5.46,5.15,9.29,5.15.08,0,.16,0,.24,0l14.34-.3c3.07-.06,5.61,2.37,5.67,5.44h0c.06,3.07-2.37,5.6-5.44,5.67l-14.34.3c-.16,0-.32,0-.48,0Z"/>
      <path d="M49.34,95.36l20-5.06c.89-.23,1.8.31,2.02,1.21l4.9,19.38c.36,1.43-1.17,2.59-2.45,1.85l-24.9-14.32c-1.3-.75-1.03-2.69.42-3.06Z"/>
    </g>
  </g>
  <g id="Layer_12" class="st5">
    <g>
      <circle cx="90.21" cy="59.15" r="11.63"/>
      <path d="M145.22,145.02l-11.89-.52c-1.58-.07-2.97-1.07-3.55-2.54l-12.04-30.98-29.73-1.29c-2.2-.1-3.91-1.96-3.81-4.16l1.7-39.27c.1-2.2,1.96-3.91,4.16-3.81,2.2.1,3.91,1.96,3.81,4.16l-1.53,35.28,28.34,1.23c1.58.07,2.97,1.07,3.55,2.54l12.04,30.98,9.29.4c2.2.1,3.91,1.96,3.81,4.16-.1,2.2-1.96,3.91-4.16,3.81Z"/>
      <path d="M112.68,92.36l-23.87-1.04c-2.2-.1-3.91-1.96-3.81-4.16.1-2.2,1.96-3.91,4.16-3.81l23.87,1.04c2.2.1,3.91,1.96,3.81,4.16-.1,2.2-1.96,3.91-4.16,3.81Z"/>
      <path d="M90.43,154.17c-18.26-.79-32.48-16.29-31.68-34.56.48-11.02,6.38-21.05,15.79-26.83,1.88-1.15,4.34-.57,5.49,1.31,1.15,1.88.57,4.34-1.31,5.49-7.15,4.39-11.63,12.01-11.99,20.37-.6,13.87,10.19,25.64,24.05,26.24,10.13.44,19.49-5.19,23.84-14.35.95-1.99,3.33-2.84,5.32-1.89,1.99.95,2.84,3.33,1.89,5.32-5.73,12.06-18.05,19.48-31.39,18.9Z"/>
      <g>
        <path d="M128.32,49.26l-3.51,6.22c-.51.91-1.48,1.48-2.53,1.47l-6.81-.02,4.91,4.7c.69.66,1.01,1.61.86,2.54l-1.23,7.83,6.02-3.56c.91-.54,2.05-.54,2.96,0l6.16,3.69-1.31-7.67c-.18-1.05.23-2.11,1.06-2.76l5.08-4-5.63-.36c-.98-.06-1.87-.62-2.35-1.48l-3.7-6.61Z"/>
        <path d="M119.2,73.21l1.54-9.81c.05-.31-.06-.62-.28-.84l-6.53-6.25,9.13.02c.34,0,.66-.18.83-.48l4.43-7.85,4.59,8.21c.16.28.45.47.77.49l7.96.5-6.97,5.49c-.27.22-.41.56-.35.91l1.67,9.77-7.99-4.79c-.3-.18-.67-.18-.97,0l-7.83,4.63ZM117.02,57.56l4.76,4.56c.23.22.33.53.28.84l-1.23,7.85,6.21-3.67c.3-.18.67-.18.97,0l6.31,3.78-1.34-7.84c-.06-.34.08-.69.35-.91l5-3.94-5.92-.38-4.1-7.32-3.7,6.57c-.17.3-.49.49-.83.48l-6.77-.02Z"/>
      </g>
    </g>
  </g>
  <g id="Layer_13" class="st5">
    <path d="M144.78,99.65c-2.94-24.76-25.4-42.46-50.17-39.52-24.76,2.94-42.46,25.4-39.52,50.17,2.94,24.76,25.4,42.46,50.17,39.52,24.76-2.94,42.46-25.4,39.52-50.17ZM100.21,124.53v-15.97l-17.28,15.2c-.34.3-.88.06-.88-.4v-38.03c0-.46.54-.7.88-.4l17.28,15.2v-14.8c0-.46.54-.7.88-.4l22.07,19.42-22.95,20.19Z"/>
  </g>
  <g id="Layer_14" class="st5">
    <text class="st4" transform="translate(47.97 122.25)"><tspan x="0" y="0">VIP</tspan></text>
  </g>
  <g id="Layer_15" class="st5">
    <path d="M146.97,89.01l-33.08-.15c-1.62,0-2.93-1.33-2.92-2.94l.15-33.08c0-1.62-1.3-2.94-2.92-2.94l-16.15-.07c-1.62,0-2.94,1.3-2.94,2.92l-.15,33.08c0,1.62-1.33,2.93-2.94,2.92l-33.08-.15c-1.62,0-2.94,1.3-2.94,2.92l-.07,16.15c0,1.62,1.3,2.94,2.92,2.94l33.08.15c1.62,0,2.93,1.33,2.92,2.94l-.15,33.08c0,1.62,1.3,2.94,2.92,2.94l16.15.07c1.62,0,2.94-1.3,2.94-2.92l.15-33.08c0-1.62,1.33-2.93,2.94-2.92l33.08.15c1.62,0,2.94-1.3,2.94-2.92l.07-16.15c0-1.62-1.3-2.94-2.92-2.94Z"/>
  </g>
  <g id="Layer_16" class="st5">
    <g>
      <g>
        <path d="M100.54,72.62l-7.7,14.98c-1.13,2.2-3.36,3.62-5.83,3.71l-16.06.59,12.02,10.63c1.68,1.48,2.52,3.69,2.26,5.92l-2.18,18.57,13.88-8.95c2.11-1.36,4.79-1.46,6.99-.25l14.86,8.13-3.8-17.96c-.52-2.45.35-4.99,2.25-6.62l11.6-9.89-13.3-.32c-2.32-.06-4.45-1.29-5.67-3.27l-9.33-15.26Z"/>
        <path d="M81.58,127.07l2.31-19.72c.14-1.17-.31-2.33-1.19-3.11l-12.91-11.43c-.91-.81-.37-2.32.85-2.36l17.37-.63c1.3-.05,2.48-.79,3.07-1.95l8.26-16.08c.48-.94,1.81-.99,2.36-.09l9.93,16.25c.64,1.04,1.76,1.69,2.98,1.72l14.55.35c1.24.03,1.79,1.58.84,2.38l-12.62,10.76c-1,.86-1.46,2.19-1.19,3.48l4.07,19.23c.24,1.13-.96,2.02-1.97,1.47l-15.99-8.75c-1.16-.63-2.57-.58-3.68.13l-14.96,9.65c-.96.62-2.21-.16-2.08-1.29ZM77.19,95.46l8.59,7.61c.88.78,1.33,1.94,1.19,3.11l-1.77,15.08c-.13,1.14,1.11,1.91,2.08,1.29l11.22-7.24c1.11-.72,2.52-.77,3.68-.13l11.95,6.53c1.01.55,2.21-.34,1.97-1.47l-3.11-14.71c-.27-1.29.18-2.63,1.19-3.48l8.13-6.94c.94-.81.4-2.35-.84-2.38l-9.73-.24c-.46-.01-.88-.25-1.12-.65l-8.69-14.21c-.55-.9-1.87-.85-2.36.09l-6.66,12.97c-.59,1.16-1.77,1.91-3.07,1.95l-11.78.43c-1.22.04-1.76,1.55-.85,2.36Z"/>
      </g>
      <rect class="st1" x="49.79" y="49.7" width="100.23" height="100.23" rx="5.07" ry="5.07"/>
    </g>
  </g>
  <g id="Layer_17" class="st5">
    <g>
      <path d="M119.74,75.13H49.51c-2.9,0-5.24,2.35-5.24,5.24v9.39c0,1.34,1.04,2.33,2.35,2.58,5.92,1.1,10.39,6.29,10.39,12.53s-4.48,11.43-10.39,12.53c-1.32.25-2.35,1.24-2.35,2.58v9.39c0,2.9,2.35,5.24,5.24,5.24h70.23v-59.49Z"/>
      <path d="M128.26,134.62h22.04c2.9,0,5.24-2.35,5.24-5.24v-9.39c0-1.34-1.04-2.33-2.35-2.58-5.92-1.1-10.39-6.29-10.39-12.53s4.48-11.43,10.39-12.53c1.32-.25,2.35-1.24,2.35-2.58v-9.39c0-2.9-2.35-5.24-5.24-5.24h-22.04v59.49Z"/>
    </g>
  </g>
  <g id="Layer_18" class="st5">
    <text class="st3" transform="translate(61.99 119.94) rotate(1.75)"><tspan x="0" y="0">GS</tspan></text>
  </g>
</svg>