<svg width="30" height="30" viewBox="0 0 30 30" fill="none" xmlns="http://www.w3.org/2000/svg">
<path d="M2.5 15C2.5 17.9837 3.68526 20.8452 5.79505 22.955C7.90483 25.0647 10.7663 26.25 13.75 26.25C16.7375 26.25 19.6 25.075 21.75 23L19.875 21.125C19.088 21.9584 18.1384 22.6214 17.0848 23.0729C16.0313 23.5244 14.8962 23.7549 13.75 23.75C5.95 23.75 2.05 14.325 7.5625 8.8125C13.075 3.3 22.5 7.2125 22.5 15H18.75L23.75 20H23.875L28.75 15H25C25 12.0163 23.8147 9.15483 21.705 7.04505C19.5952 4.93526 16.7337 3.75 13.75 3.75C10.7663 3.75 7.90483 4.93526 5.79505 7.04505C3.68526 9.15483 2.5 12.0163 2.5 15Z" fill="#78E86E"/>
</svg>
